<svg width="73" height="71" viewBox="0 0 73 71" fill="none" xmlns="http://www.w3.org/2000/svg">
<path d="M12.5 46C19.4036 46 25 51.5964 25 58.5C25 65.4036 19.4036 71 12.5 71C5.59644 71 0 65.4036 0 58.5C0 51.5964 5.59644 46 12.5 46ZM13 0C19.6274 0 25 5.37258 25 12V21C25 27.6274 30.3726 33 37 33H61C67.6274 33 73 38.3726 73 45V59C73 65.6274 67.6274 71 61 71H60C53.3726 71 48 65.6274 48 59V49C48 42.9249 43.0751 38 37 38H12C5.37258 38 0 32.6274 0 26V12C0 5.37258 5.37258 0 12 0H13ZM60.5 0C67.4036 0 73 5.59644 73 12.5C73 19.4036 67.4036 25 60.5 25C53.5964 25 48 19.4036 48 12.5C48 5.59644 53.5964 0 60.5 0Z" fill="#E0F74E"/>
</svg>
