<svg width="384" height="71" viewBox="0 0 384 71" fill="none" xmlns="http://www.w3.org/2000/svg">
<path d="M12.5 46C19.4036 46 25 51.5964 25 58.5C25 65.4036 19.4036 71 12.5 71C5.59644 71 0 65.4036 0 58.5C0 51.5964 5.59644 46 12.5 46ZM13 0C19.6274 0 25 5.37258 25 12V21C25 27.6274 30.3726 33 37 33H61C67.6274 33 73 38.3726 73 45V59C73 65.6274 67.6274 71 61 71H60C53.3726 71 48 65.6274 48 59V49C48 42.9249 43.0751 38 37 38H12C5.37258 38 0 32.6274 0 26V12C0 5.37258 5.37258 0 12 0H13ZM60.5 0C67.4036 0 73 5.59644 73 12.5C73 19.4036 67.4036 25 60.5 25C53.5964 25 48 19.4036 48 12.5C48 5.59644 53.5964 0 60.5 0Z" fill="#E0F74E"/>
<path d="M106.127 10.6231C107.784 10.6232 109.127 11.9663 109.127 13.6231V25.8535H122.264V13.6231C122.264 11.9664 123.607 10.6233 125.264 10.6231H131.391C133.047 10.6231 134.391 11.9662 134.391 13.6231V51.2842C134.391 52.9411 133.047 54.2842 131.391 54.2842H125.264C123.607 54.284 122.264 52.9409 122.264 51.2842V36.0078H109.127V51.2842C109.127 52.941 107.784 54.2841 106.127 54.2842H100C98.3431 54.2842 97 52.9411 97 51.2842V13.6231C97 11.9662 98.3431 10.6231 100 10.6231H106.127Z" fill="#E0F74E"/>
<path d="M147.57 16.7154C148.805 16.7154 149.915 17.4732 150.364 18.6246L158.208 38.7232L166.054 18.6246C166.503 17.4735 167.612 16.7155 168.848 16.7154H175.998C177.406 16.7156 178.373 18.1316 177.862 19.4429L159.459 66.5904C159.01 67.7417 157.9 68.4996 156.664 68.4996H149.515C148.107 68.4995 147.14 67.0843 147.652 65.773L152.145 54.2583L138.557 19.4429C138.045 18.1315 139.012 16.7154 140.42 16.7154H147.57Z" fill="#E0F74E"/>
<path d="M203.109 15.7C212.597 15.7002 220.289 24.5648 220.289 35.4998C220.289 46.4349 212.597 55.2994 203.109 55.2996C199.064 55.2995 195.623 53.6876 193.004 50.992V62.408C193.003 64.0901 191.646 65.4537 189.972 65.4539H184.919C183.245 65.4537 181.888 64.0901 181.887 62.408V19.7615C181.887 18.0794 183.245 16.7159 184.919 16.7156H187.384C188.62 16.7156 189.73 17.473 190.179 18.6238L191.446 21.868C194.185 18.0689 198.205 15.7002 203.109 15.7ZM201.088 26.8689C196.623 26.8692 193.004 30.7334 193.004 35.4998C193.004 40.2663 196.623 44.1304 201.088 44.1307C205.552 44.1307 209.172 40.2664 209.172 35.4998C209.172 30.7332 205.552 26.8689 201.088 26.8689Z" fill="#E0F74E"/>
<path fill-rule="evenodd" clip-rule="evenodd" d="M243.026 15.7C253.352 15.7 261.722 23.5494 261.722 34.4846C261.722 35.4352 261.754 35.5195 261.624 37.2211C261.545 38.2574 260.676 39.0538 259.637 39.0538H235.447C235.447 42.1 239.293 45.1461 244.037 45.1461C247.374 45.1461 250.05 44.0943 251.578 42.1192C252.021 41.547 252.911 41.4055 253.396 41.9423L257.596 46.5896C257.907 46.9337 257.942 47.4485 257.664 47.8193C254.239 52.3778 248.955 55.3 243.026 55.3C232.701 55.3 224.331 46.4352 224.331 35.5C224.331 24.5648 232.701 15.7 243.026 15.7ZM243.026 25.3462C239.489 25.3462 236.458 27.3769 236.458 30.9308H249.595C249.595 27.3769 246.563 25.3462 243.026 25.3462Z" fill="#E0F74E"/>
<path d="M285.47 15.7C296.353 15.7 305.176 24.5647 305.176 35.4998C305.176 46.435 296.353 55.2996 285.47 55.2996C274.587 55.2996 265.764 46.435 265.764 35.4998C265.764 24.5647 274.587 15.7 285.47 15.7ZM285.47 25.8543C280.726 25.8543 276.88 30.1725 276.88 35.4998C276.88 40.8272 280.726 45.1463 285.47 45.1463C290.214 45.1462 294.06 40.8272 294.06 35.4998C294.06 30.1725 290.214 25.8543 285.47 25.8543Z" fill="#E0F74E"/>
<path d="M351.128 10.6231C351.539 10.6231 351.908 10.8745 352.058 11.2569L368.85 53.9336C369.108 54.5897 368.625 55.2998 367.92 55.2998H358.674C358.273 55.2997 357.912 55.0607 357.755 54.6924L355.171 48.6348C355.013 48.2663 354.651 48.0274 354.251 48.0274H340.061C339.661 48.0274 339.299 48.2663 339.141 48.6348L336.557 54.6924C336.4 55.0609 336.038 55.2998 335.637 55.2998H326.391C325.686 55.2998 325.203 54.5897 325.461 53.9336L342.253 11.2569C342.403 10.8745 342.772 10.6232 343.183 10.6231H351.128ZM348.093 27.6797C347.769 26.8126 346.542 26.8126 346.218 27.6797L343.007 36.2871C342.763 36.9407 343.246 37.6367 343.943 37.6367H350.369C351.066 37.6364 351.549 36.9405 351.305 36.2871L348.093 27.6797Z" fill="#E0F74E"/>
<rect x="371.873" y="17.7308" width="12.1268" height="37.5692" rx="2" fill="#E0F74E"/>
<rect x="371.873" y="2.5" width="12.1268" height="11.1692" rx="2" fill="#E0F74E"/>
</svg>
