<svg width="20" height="20" viewBox="0 0 20 20" fill="none" xmlns="http://www.w3.org/2000/svg">
<g clip-path="url(#clip0_360_1162)">
<path d="M20 10C20 15.5228 15.5228 20 10 20C4.47715 20 0 15.5228 0 10C0 4.47715 4.47715 0 10 0C15.5228 0 20 4.47715 20 10Z" fill="#D80027"/>
<path d="M5.33333 5.97656L6.23139 8.74049H9.13756L6.78642 10.4487L7.68447 13.2126L5.33333 11.5044L2.98219 13.2126L3.88025 10.4487L1.52911 8.74049H4.43528L5.33333 5.97656Z" fill="#FFDA44"/>
<path d="M11.8836 4.47268L11.8179 5.43918L12.7168 5.80028L11.7773 6.03651L11.7117 7.003L11.1967 6.1825L10.2572 6.41874L10.8784 5.67541L10.3634 4.85491L11.2624 5.21601L11.8836 4.47268Z" fill="#FFDA44"/>
<path d="M14.8967 7.35562L14.4787 8.22954L15.1807 8.89709L14.2204 8.76965L13.8025 9.64357L13.6269 8.69088L12.6666 8.56344L13.5184 8.10209L13.3429 7.1494L14.0449 7.81696L14.8967 7.35562Z" fill="#FFDA44"/>
<path d="M15.2543 11.4355L14.4776 12.0145L14.7883 12.932L13.9976 12.3723L13.221 12.9513L13.509 12.0264L12.7183 11.4666L13.687 11.4547L13.975 10.5298L14.2856 11.4474L15.2543 11.4355Z" fill="#FFDA44"/>
<path d="M12.6666 14.0039L11.7587 14.3417L11.7993 15.3095L11.1975 14.5504L10.2896 14.8881L10.8256 14.0812L10.2239 13.3221L11.1569 13.5825L11.6929 12.7756L11.7336 13.7435L12.6666 14.0039Z" fill="#FFDA44"/>
<path d="M10 0C15.5228 0 20 4.47715 20 10C20 15.5228 15.5228 20 10 20C4.47715 20 0 15.5228 0 10C0 4.47715 4.47715 0 10 0ZM10 1C8.81804 1.00007 7.64766 1.23294 6.5557 1.68531C5.46373 2.13769 4.47156 2.80072 3.63583 3.63654C2.8001 4.47236 2.13719 5.4646 1.68493 6.55662C1.23267 7.64864 0.999934 8.81904 1 10.001C1.00007 11.183 1.23294 12.3533 1.68531 13.4453C2.13769 14.5373 2.80072 15.5294 3.63654 16.3652C4.47236 17.2009 5.4646 17.8638 6.55662 18.3161C7.64864 18.7683 8.81904 19.0011 10.001 19.001C12.3881 19.0009 14.6773 18.0525 16.3652 16.3645C18.053 14.6764 19.0011 12.3871 19.001 10C19.0009 7.61292 18.0525 5.32366 16.3645 3.63583C14.6764 1.948 12.3871 0.999867 10 1Z" fill="black" fill-opacity="0.1"/>
</g>
<defs>
<clipPath id="clip0_360_1162">
<rect width="20" height="20" fill="white"/>
</clipPath>
</defs>
</svg>
