<svg width="20" height="20" viewBox="0 0 20 20" fill="none" xmlns="http://www.w3.org/2000/svg">
<g clip-path="url(#clip0_359_1154)">
<mask id="mask0_359_1154" style="mask-type:alpha" maskUnits="userSpaceOnUse" x="0" y="0" width="20" height="20">
<path d="M10 20C15.5228 20 20 15.5228 20 10C20 4.47715 15.5228 0 10 0C4.47715 0 0 4.47715 0 10C0 15.5228 4.47715 20 10 20Z" fill="white"/>
</mask>
<g mask="url(#mask0_359_1154)">
<path fill-rule="evenodd" clip-rule="evenodd" d="M0 0H7V20H0V0Z" fill="#009DFF"/>
<path fill-rule="evenodd" clip-rule="evenodd" d="M7 0H13V20H7V0Z" fill="white"/>
<path fill-rule="evenodd" clip-rule="evenodd" d="M13 0H20V20H13V0Z" fill="#FF6619"/>
<path d="M10 19.5C15.2467 19.5 19.5 15.2467 19.5 10C19.5 4.75329 15.2467 0.5 10 0.5C4.75329 0.5 0.5 4.75329 0.5 10C0.5 15.2467 4.75329 19.5 10 19.5Z" stroke="black" stroke-opacity="0.05"/>
</g>
</g>
<defs>
<clipPath id="clip0_359_1154">
<rect width="20" height="20" fill="white"/>
</clipPath>
</defs>
</svg>
