<svg width="20" height="20" viewBox="0 0 20 20" fill="none" xmlns="http://www.w3.org/2000/svg">
<g clip-path="url(#clip0_359_1138)">
<mask id="mask0_359_1138" style="mask-type:alpha" maskUnits="userSpaceOnUse" x="0" y="0" width="20" height="20">
<path d="M10 20C15.5228 20 20 15.5228 20 10C20 4.47715 15.5228 0 10 0C4.47715 0 0 4.47715 0 10C0 15.5228 4.47715 20 10 20Z" fill="white"/>
</mask>
<g mask="url(#mask0_359_1138)">
<path d="M10 20C15.5228 20 20 15.5228 20 10C20 4.47715 15.5228 0 10 0C4.47715 0 0 4.47715 0 10C0 15.5228 4.47715 20 10 20Z" fill="white"/>
<path fill-rule="evenodd" clip-rule="evenodd" d="M0 0H20V7H0V0Z" fill="#AE1C28"/>
<path fill-rule="evenodd" clip-rule="evenodd" d="M0 13H20V20H0V13Z" fill="#21468B"/>
</g>
<path d="M10 0C15.523 0 20 4.477 20 10C20 15.523 15.523 20 10 20C4.477 20 0 15.523 0 10C0 4.477 4.477 0 10 0ZM10 1C8.81804 1.00007 7.64766 1.23294 6.5557 1.68531C5.46373 2.13769 4.47156 2.80072 3.63583 3.63654C2.8001 4.47236 2.13719 5.4646 1.68493 6.55662C1.23267 7.64864 0.999934 8.81904 1 10.001C1.00007 11.183 1.23294 12.3533 1.68531 13.4453C2.13769 14.5373 2.80072 15.5294 3.63654 16.3652C4.47236 17.2009 5.4646 17.8638 6.55662 18.3161C7.64864 18.7683 8.81904 19.0011 10.001 19.001C12.3881 19.0009 14.6773 18.0525 16.3652 16.3645C18.053 14.6764 19.0011 12.3871 19.001 10C19.0009 7.61292 18.0525 5.32366 16.3645 3.63583C14.6764 1.948 12.3871 0.999867 10 1Z" fill="black" fill-opacity="0.1"/>
</g>
<defs>
<clipPath id="clip0_359_1138">
<rect width="20" height="20" fill="white"/>
</clipPath>
</defs>
</svg>
